<svg width="40" height="40" viewBox="0 0 40 40" fill="none" xmlns="http://www.w3.org/2000/svg">
<path fill-rule="evenodd" clip-rule="evenodd" d="M31.3746 10.3121L22.7027 5.30537C20.9379 4.28645 20.6652 4.17255 20.4495 4.1267C20.1532 4.06371 19.8468 4.06371 19.5505 4.1267C19.3348 4.17255 19.0621 4.28645 17.2973 5.30537L8.62544 10.3121C6.8606 11.331 6.62564 11.5102 6.4781 11.674C6.27535 11.8992 6.12219 12.1645 6.02856 12.4527C5.96042 12.6624 5.92274 12.9554 5.92274 14.9933L5.92274 25.0067C5.92274 27.0446 5.96042 27.3376 6.02856 27.5473C6.12219 27.8355 6.27535 28.1008 6.4781 28.326C6.62564 28.4898 6.8606 28.669 8.62544 29.6879L17.2973 34.6946C19.0621 35.7135 19.3348 35.8274 19.5505 35.8733C19.8468 35.9363 20.1532 35.9363 20.4495 35.8733C20.6652 35.8274 20.9379 35.7135 22.7027 34.6946L31.3746 29.6879C33.1394 28.669 33.3744 28.4898 33.5219 28.326C33.7246 28.1008 33.8778 27.8355 33.9714 27.5473C34.0396 27.3376 34.0773 27.0446 34.0773 25.0067V14.9933C34.0773 12.9554 34.0396 12.6624 33.9714 12.4527C33.8778 12.1645 33.7246 11.8992 33.5219 11.674C33.3744 11.5102 33.1394 11.331 31.3746 10.3121ZM18.8762 0.954333C18.0387 1.13233 17.251 1.5871 15.6757 2.49664L7.00381 7.50335C5.42845 8.41288 4.64076 8.86765 4.0679 9.50388C3.56103 10.0668 3.17814 10.73 2.94405 11.4504C2.67949 12.2647 2.67949 13.1742 2.67949 14.9933L2.67949 25.0067C2.67949 26.8258 2.67949 27.7353 2.94405 28.5495C3.17814 29.27 3.56103 29.9332 4.0679 30.4961C4.64076 31.1323 5.42845 31.5871 7.00382 32.4966L15.6757 37.5033L15.6757 37.5034C17.2511 38.4129 18.0387 38.8677 18.8762 39.0457C19.6171 39.2031 20.3829 39.2031 21.1238 39.0457C21.9613 38.8677 22.7489 38.4129 24.3243 37.5034L24.3243 37.5033L32.9962 32.4966C34.5716 31.5871 35.3592 31.1323 35.9321 30.4961C36.439 29.9332 36.8219 29.27 37.0559 28.5495C37.3205 27.7353 37.3205 26.8258 37.3205 25.0067V14.9933C37.3205 13.1742 37.3205 12.2647 37.0559 11.4504C36.8219 10.73 36.439 10.0668 35.9321 9.50388C35.3592 8.86765 34.5716 8.41288 32.9962 7.50334L24.3243 2.49664C22.749 1.5871 21.9613 1.13233 21.1238 0.954333C20.3829 0.796838 19.6171 0.796838 18.8762 0.954333Z" fill="#F50057"></path>
<path d="M19.9997 20.0001L8.64862 13.5136V26.4866L19.9997 32.9728V20.0001Z" fill="#CC0047"></path>
<path d="M31.3513 13.5135L20 20.0002V32.9731L31.3513 26.4867V13.5135Z" fill="#A3003A"></path>
<path d="M31.3514 13.5136L20 7.02695L8.64865 13.5135L20.0001 20.0001L31.3514 13.5136Z" fill="#F50057"></path>
</svg>